<mxfile host="app.diagrams.net" modified="2023-10-05T19:26:09.451Z" agent="Mozilla/5.0 (Windows NT 10.0; Win64; x64) AppleWebKit/537.36 (KHTML, like Gecko) Chrome/117.0.0.0 Safari/537.36 Edg/117.0.2045.47" version="22.0.3" etag="ifTYUA2rzBcYQ46eROsk" type="github">
  <diagram name="PÃ¡gina-1" id="VajegcuZk3Cp-vx2OyAl">
    <mxGraphModel>
      <root>
        <mxCell id="0" />
        <mxCell id="1" parent="0" />
      </root>
    </mxGraphModel>
  </diagram>
</mxfile>
